<svg width="360" height="527" viewBox="0 0 360 527" fill="none" xmlns="http://www.w3.org/2000/svg">
<g opacity="0.8" clip-path="url(#clip0_928_527)">
<g filter="url(#filter0_f_928_527)">
<path d="M208.026 237.181C208.026 237.181 209.197 236.474 209.905 234.722C210.612 232.971 211.605 229.778 212.121 228.965C212.696 228.059 216.282 227.358 216.282 227.358L218.756 227.828C218.756 227.828 217.684 227.947 216.976 230.921C216.269 233.896 215.581 236.996 212.511 237.413C209.448 237.829 208.026 237.195 208.026 237.195L208.026 237.181Z" fill="url(#paint0_linear_928_527)"/>
</g>
<path d="M64.7642 24.7295C64.7642 24.7295 65.6242 25.7938 67.4632 26.2499C69.3023 26.706 72.5967 27.2547 73.4766 27.6513C74.4556 28.0942 75.6464 31.5448 75.6464 31.5448L75.5273 34.0568C75.5273 34.0568 75.2627 33.0123 72.2197 32.7215C69.17 32.4306 66.0079 32.1728 65.1677 29.1981C64.3276 26.2234 64.7708 24.7295 64.7708 24.7295L64.7642 24.7295Z" fill="url(#paint1_linear_928_527)"/>
<path d="M341.318 93.7755C341.318 93.7755 341.418 93.2136 341.054 92.5129C340.696 91.8122 339.962 90.6289 339.843 90.2455C339.711 89.8158 340.472 88.5004 340.472 88.5004L341.292 87.8525C341.292 87.8525 341.034 88.2227 341.781 89.2539C342.529 90.2852 343.316 91.3494 342.608 92.4269C341.907 93.5044 341.318 93.7755 341.318 93.7755Z" fill="url(#paint2_linear_928_527)"/>
<path d="M213.351 313.769C213.351 313.769 213.45 313.207 213.087 312.506C212.723 311.805 211.995 310.622 211.876 310.239C211.744 309.809 212.504 308.494 212.504 308.494L213.325 307.846C213.325 307.846 213.067 308.216 213.814 309.247C214.562 310.278 215.349 311.343 214.641 312.42C213.94 313.498 213.351 313.769 213.351 313.769Z" fill="url(#paint3_linear_928_527)"/>
<path d="M151.134 104.986C151.134 104.986 151.233 104.425 150.869 103.724C150.506 103.023 149.778 101.84 149.659 101.456C149.526 101.027 150.287 99.7113 150.287 99.7113L151.108 99.0635C151.108 99.0635 150.85 99.4337 151.597 100.465C152.345 101.496 153.132 102.56 152.424 103.638C151.716 104.715 151.134 104.986 151.134 104.986Z" fill="url(#paint4_linear_928_527)"/>
<path d="M329.655 467.816C329.655 467.816 330.806 467.915 332.156 467.069C333.512 466.222 335.775 464.543 336.529 464.239C337.369 463.902 340.161 465.204 340.161 465.204L341.616 466.745C341.616 466.745 340.829 466.295 338.864 467.968C336.906 469.647 334.895 471.418 332.599 470.182C330.304 468.946 329.649 467.809 329.649 467.809L329.655 467.816Z" fill="url(#paint5_linear_928_527)"/>
<path d="M85.1989 114.611C85.1989 114.611 85.7546 114.744 86.4757 114.433C87.1968 114.122 88.4272 113.461 88.8175 113.375C89.2541 113.276 90.5243 114.116 90.5243 114.116L91.1197 114.975C91.1197 114.975 90.7691 114.697 89.6841 115.372C88.6058 116.046 87.4945 116.766 86.4625 115.993C85.4305 115.22 85.1989 114.618 85.1989 114.618L85.1989 114.611Z" fill="url(#paint6_linear_928_527)"/>
<path d="M300.416 51.2306C300.416 51.2306 300.971 51.3628 301.692 51.0521C302.413 50.7414 303.644 50.0804 304.034 49.9945C304.471 49.8953 305.741 50.7348 305.741 50.7348L306.336 51.5942C306.336 51.5942 305.986 51.3165 304.901 51.9908C303.816 52.6651 302.711 53.3856 301.679 52.6122C300.647 51.8388 300.416 51.2372 300.416 51.2372L300.416 51.2306Z" fill="url(#paint7_linear_928_527)"/>
<path d="M304.391 153.348C304.391 153.348 304.947 153.48 305.668 153.169C306.389 152.859 307.62 152.198 308.01 152.112C308.447 152.012 309.717 152.852 309.717 152.852L310.312 153.711C310.312 153.711 309.962 153.434 308.877 154.108C307.798 154.782 306.687 155.503 305.655 154.729C304.623 153.956 304.391 153.354 304.391 153.354L304.391 153.348Z" fill="url(#paint8_linear_928_527)"/>
<path d="M283.249 103.275C283.249 103.275 283.805 103.407 284.526 103.096C285.247 102.779 286.477 102.124 286.867 102.038C287.304 101.939 288.574 102.779 288.574 102.779L289.17 103.638C289.17 103.638 288.819 103.36 287.734 104.035C286.656 104.709 285.544 105.43 284.512 104.656C283.48 103.883 283.249 103.281 283.249 103.281L283.249 103.275Z" fill="url(#paint9_linear_928_527)"/>
<path d="M250.377 66.7325C250.377 66.7325 250.476 66.1706 250.113 65.4699C249.755 64.7692 249.021 63.5859 248.902 63.2025C248.77 62.7729 249.53 61.4574 249.53 61.4574L250.351 60.8096C250.351 60.8096 250.093 61.1798 250.84 62.211C251.588 63.2422 252.375 64.3065 251.667 65.384C250.966 66.4615 250.377 66.7325 250.377 66.7325Z" fill="url(#paint10_linear_928_527)"/>
<path d="M334.928 59.9239C334.928 59.9239 335.027 59.362 334.663 58.6613C334.306 57.9606 333.572 56.7773 333.453 56.3939C333.32 55.9643 334.081 54.6488 334.081 54.6488L334.901 54.001C334.901 54.001 334.643 54.3712 335.391 55.4024C336.138 56.4336 336.926 57.4979 336.218 58.5754C335.51 59.6529 334.928 59.9239 334.928 59.9239Z" fill="url(#paint11_linear_928_527)"/>
<path d="M275.191 237.572C275.191 237.572 276.025 236.639 274.715 234.385C273.405 232.125 271.851 228.416 271.818 227.233C271.784 226.05 272.578 225.084 273.313 224.642C274.054 224.199 274.742 223.61 274.742 223.61C274.742 223.61 274.589 225.164 275.324 226.777C276.058 228.396 278.221 233.374 278.287 234.531C278.347 235.688 276.772 237.142 276.772 237.142L275.191 237.578L275.191 237.572Z" fill="url(#paint12_linear_928_527)"/>
<path d="M88.156 176.167C88.156 176.167 88.5 174.971 86.3434 173.503C84.1801 172.036 81.1702 169.372 80.6277 168.321C80.0853 167.27 80.3763 166.06 80.8526 165.333C81.3223 164.612 81.6928 163.786 81.6928 163.786C81.6928 163.786 82.2286 165.247 83.5914 166.391C84.9542 167.528 89.0689 171.077 89.6246 172.095C90.1803 173.113 89.393 175.103 89.393 175.103L88.156 176.181L88.156 176.167Z" fill="url(#paint13_linear_928_527)"/>
<path d="M107.221 59.6853C107.221 59.6853 108.399 60.1018 109.987 58.0261C111.574 55.9505 114.406 53.0948 115.491 52.6122C116.575 52.1297 117.766 52.4932 118.461 53.0022C119.155 53.5179 119.963 53.9277 119.963 53.9277C119.963 53.9277 118.474 54.3838 117.257 55.6794C116.04 56.9751 112.269 60.8818 111.224 61.3776C110.178 61.8734 108.234 60.9744 108.234 60.9744L107.228 59.6787L107.221 59.6853Z" fill="url(#paint14_linear_928_527)"/>
<path d="M229.473 44.6795C229.473 44.6795 230.65 45.0959 232.238 43.0203C233.826 40.9446 236.657 38.0889 237.742 37.6064C238.827 37.1238 240.018 37.4874 240.712 37.9964C241.407 38.512 242.214 38.9218 242.214 38.9218C242.214 38.9218 240.725 39.378 239.508 40.6736C238.291 41.9692 234.52 45.876 233.475 46.3717C232.43 46.8675 230.485 45.9685 230.485 45.9685L229.479 44.6729L229.473 44.6795Z" fill="url(#paint15_linear_928_527)"/>
<path d="M239.978 432.193C239.978 432.193 240.811 431.261 239.502 429.006C238.192 426.746 236.637 423.037 236.604 421.854C236.571 420.671 237.365 419.706 238.106 419.263C238.847 418.82 239.535 418.231 239.535 418.231C239.535 418.231 239.383 419.785 240.117 421.398C240.851 423.017 243.014 427.995 243.081 429.152C243.14 430.309 241.566 431.763 241.566 431.763L239.985 432.199L239.978 432.193Z" fill="url(#paint16_linear_928_527)"/>
<path d="M100 324.823C100 324.823 101.171 324.116 101.879 322.364C102.587 320.612 103.579 317.419 104.095 316.606C104.67 315.701 108.256 315 108.256 315L110.73 315.469C110.73 315.469 109.658 315.588 108.951 318.563C108.243 321.538 107.555 324.638 104.485 325.054C101.422 325.471 100 324.836 100 324.836L100 324.823Z" fill="url(#paint17_linear_928_527)"/>
<path d="M267.729 96.4988C267.729 96.4988 268.225 97.7746 269.84 98.7595C271.454 99.7511 274.431 101.265 275.152 101.906C275.952 102.62 276.045 106.269 276.045 106.269L275.172 108.629C275.172 108.629 275.238 107.551 272.42 106.355C269.601 105.158 266.658 103.962 266.757 100.875C266.856 97.7878 267.723 96.4922 267.723 96.4922L267.729 96.4988Z" fill="url(#paint18_linear_928_527)"/>
<path d="M34.1616 59.1699C34.1616 59.1699 35.0216 60.2342 36.8607 60.6903C38.6997 61.1464 41.9942 61.6951 42.874 62.0917C43.8531 62.5346 45.0439 65.9852 45.0439 65.9852L44.9248 68.4972C44.9248 68.4972 44.6602 67.4527 41.6171 67.1619C38.5674 66.871 35.4053 66.6132 34.5652 63.6385C33.725 60.6639 34.1682 59.1699 34.1682 59.1699L34.1616 59.1699Z" fill="url(#paint19_linear_928_527)"/>
<path d="M90.7558 268.329C90.7558 268.329 90.855 267.767 90.4912 267.067C90.134 266.366 89.3996 265.183 89.2806 264.799C89.1483 264.37 89.909 263.054 89.909 263.054L90.7293 262.406C90.7293 262.406 90.4713 262.776 91.2189 263.808C91.9664 264.839 92.7536 265.903 92.0458 266.981C91.338 268.058 90.7558 268.329 90.7558 268.329Z" fill="url(#paint20_linear_928_527)"/>
<path d="M254.082 167.031C254.082 167.031 254.181 166.469 253.817 165.769C253.46 165.068 252.726 163.885 252.607 163.501C252.474 163.072 253.235 161.756 253.235 161.756L254.055 161.108C254.055 161.108 253.797 161.479 254.545 162.51C255.292 163.541 256.08 164.605 255.372 165.683C254.671 166.76 254.082 167.031 254.082 167.031Z" fill="url(#paint21_linear_928_527)"/>
<path d="M63.8976 97.127C63.8976 97.127 63.9968 96.5651 63.633 95.8644C63.2691 95.1637 62.5414 93.9805 62.4224 93.5971C62.2901 93.1674 63.0508 91.8519 63.0508 91.8519L63.8711 91.2041C63.8711 91.2041 63.6131 91.5743 64.3607 92.6055C65.1082 93.6367 65.8954 94.701 65.1876 95.7785C64.4797 96.856 63.8976 97.127 63.8976 97.127Z" fill="url(#paint22_linear_928_527)"/>
<path d="M63.8976 178.249C63.8976 178.249 63.9968 177.687 63.633 176.986C63.2757 176.286 62.5414 175.103 62.4224 174.719C62.2901 174.289 63.0508 172.974 63.0508 172.974L63.8711 172.326C63.8711 172.326 63.6131 172.696 64.3607 173.728C65.1082 174.759 65.8954 175.823 65.1876 176.901C64.4797 177.978 63.8976 178.249 63.8976 178.249Z" fill="url(#paint23_linear_928_527)"/>
<path d="M173.891 43.9463C173.891 43.9463 173.99 43.3845 173.626 42.6838C173.269 41.9831 172.535 40.7998 172.416 40.4164C172.283 39.9867 173.044 38.6713 173.044 38.6713L173.864 38.0234C173.864 38.0234 173.606 38.3936 174.354 39.4248C175.101 40.4561 175.889 41.5203 175.181 42.5978C174.473 43.6753 173.891 43.9463 173.891 43.9463Z" fill="url(#paint24_linear_928_527)"/>
<path d="M27.4537 183.333C27.4537 183.333 28.0093 183.465 28.7304 183.155C29.4515 182.844 30.6819 182.183 31.0722 182.097C31.5089 181.998 32.779 182.837 32.779 182.837L33.3744 183.697C33.3744 183.697 33.0238 183.419 31.9389 184.093C30.8606 184.768 29.7492 185.488 28.7172 184.715C27.6852 183.941 27.4537 183.34 27.4537 183.34L27.4537 183.333Z" fill="url(#paint25_linear_928_527)"/>
<path d="M195.1 58.7208C195.1 58.7208 195.655 58.8531 196.376 58.5424C197.097 58.2317 198.328 57.5706 198.718 57.4847C199.155 57.3855 200.425 58.2251 200.425 58.2251L201.02 59.0844C201.02 59.0844 200.67 58.8068 199.585 59.481C198.5 60.1553 197.395 60.8758 196.363 60.1024C195.331 59.329 195.1 58.7275 195.1 58.7275L195.1 58.7208Z" fill="url(#paint26_linear_928_527)"/>
<path d="M317.953 215.975C317.953 215.975 318.509 216.107 319.23 215.796C319.951 215.486 321.181 214.825 321.572 214.739C322.008 214.639 323.278 215.479 323.278 215.479L323.874 216.338C323.874 216.338 323.523 216.061 322.438 216.735C321.36 217.409 320.248 218.13 319.216 217.356C318.184 216.583 317.953 215.981 317.953 215.981L317.953 215.975Z" fill="url(#paint27_linear_928_527)"/>
<path d="M196.012 176.53C196.012 176.53 196.568 176.663 197.289 176.352C198.01 176.035 199.241 175.38 199.631 175.294C200.068 175.195 201.338 176.035 201.338 176.035L201.933 176.894C201.933 176.894 201.583 176.616 200.498 177.291C199.419 177.965 198.308 178.685 197.276 177.912C196.244 177.139 196.012 176.537 196.012 176.537L196.012 176.53Z" fill="url(#paint28_linear_928_527)"/>
<path d="M163.141 139.988C163.141 139.988 163.24 139.426 162.876 138.726C162.519 138.025 161.785 136.842 161.666 136.458C161.533 136.029 162.294 134.713 162.294 134.713L163.114 134.065C163.114 134.065 162.856 134.436 163.604 135.467C164.351 136.498 165.139 137.562 164.431 138.64C163.73 139.717 163.141 139.988 163.141 139.988Z" fill="url(#paint29_linear_928_527)"/>
<path d="M247.691 133.187C247.691 133.187 247.791 132.625 247.427 131.924C247.07 131.223 246.335 130.04 246.216 129.657C246.084 129.227 246.845 127.911 246.845 127.911L247.665 127.264C247.665 127.264 247.407 127.634 248.155 128.665C248.902 129.696 249.689 130.761 248.981 131.838C248.274 132.916 247.691 133.187 247.691 133.187Z" fill="url(#paint30_linear_928_527)"/>
<path d="M210.48 342.835C210.48 342.835 211.314 341.903 210.004 339.649C208.694 337.388 207.139 333.68 207.106 332.497C207.073 331.313 207.867 330.348 208.601 329.905C209.342 329.456 210.03 328.874 210.03 328.874C210.03 328.874 209.878 330.427 210.612 332.04C211.347 333.66 213.51 338.638 213.576 339.794C213.636 340.951 212.061 342.405 212.061 342.405L210.48 342.842L210.48 342.835Z" fill="url(#paint31_linear_928_527)"/>
<path d="M42.616 233.056C42.616 233.056 42.96 231.86 40.8034 230.392C38.6402 228.925 35.6302 226.261 35.0878 225.21C34.5453 224.158 34.8364 222.949 35.3127 222.222C35.789 221.495 36.1528 220.675 36.1528 220.675C36.1528 220.675 36.6887 222.136 38.0514 223.279C39.4142 224.416 43.5289 227.966 44.0846 228.984C44.6403 230.002 43.8531 231.992 43.8531 231.992L42.616 233.069L42.616 233.056Z" fill="url(#paint32_linear_928_527)"/>
<path d="M19.9783 132.948C19.9783 132.948 21.1559 133.364 22.7435 131.289C24.3312 129.213 27.1626 126.357 28.2475 125.875C29.3324 125.392 30.5232 125.756 31.2178 126.265C31.9124 126.781 32.7195 127.19 32.7195 127.19C32.7195 127.19 31.231 127.647 30.0138 128.942C28.7966 130.238 25.0258 134.145 23.9806 134.64C22.9354 135.136 20.9905 134.237 20.9905 134.237L19.9849 132.941L19.9783 132.948Z" fill="url(#paint33_linear_928_527)"/>
<path d="M142.23 117.936C142.23 117.936 143.407 118.353 144.995 116.277C146.583 114.201 149.414 111.346 150.499 110.863C151.584 110.381 152.775 110.744 153.469 111.253C154.164 111.769 154.971 112.179 154.971 112.179C154.971 112.179 153.482 112.635 152.265 113.93C151.048 115.226 147.277 119.133 146.232 119.629C145.187 120.124 143.242 119.225 143.242 119.225L142.236 117.93L142.23 117.936Z" fill="url(#paint34_linear_928_527)"/>
<g filter="url(#filter1_f_928_527)">
<path d="M133.375 21.9611C133.375 21.9611 134.208 21.0291 132.899 18.7749C131.589 16.5142 130.034 12.8058 130.001 11.6225C129.968 10.4392 130.762 9.47411 131.503 9.03122C132.244 8.58832 132.932 8 132.932 8C132.932 8 132.779 9.55344 133.514 11.1664C134.248 12.7859 136.411 17.7635 136.477 18.9204C136.537 20.0772 134.963 21.5315 134.963 21.5315L133.381 21.9677L133.375 21.9611Z" fill="url(#paint35_linear_928_527)"/>
</g>
<path d="M14.8712 463.485C14.8712 463.485 16.2009 463.816 17.9408 463.075C19.6806 462.335 22.6443 460.782 23.5837 460.57C24.6289 460.332 27.6653 462.368 27.6653 462.368L29.081 464.444C29.081 464.444 28.2409 463.77 25.6344 465.369C23.028 466.976 20.3487 468.674 17.8878 466.81C15.4269 464.94 14.8712 463.485 14.8712 463.485Z" fill="url(#paint36_linear_928_527)"/>
<path d="M299.82 445.922C299.82 445.922 299.271 447.178 299.714 449.016C300.158 450.853 301.19 454.033 301.243 454.998C301.302 456.069 298.782 458.713 298.782 458.713L296.499 459.764C296.499 459.764 297.306 459.05 296.162 456.214C295.018 453.378 293.78 450.45 296.036 448.341C298.292 446.226 299.82 445.928 299.82 445.928L299.82 445.922Z" fill="url(#paint37_linear_928_527)"/>
<g filter="url(#filter2_f_928_527)">
<path d="M125.777 263.497C125.777 263.497 125.632 264.859 126.604 266.478C127.577 268.098 129.522 270.815 129.866 271.72C130.243 272.725 128.642 276.004 128.642 276.004L126.776 277.69C126.776 277.69 127.332 276.764 125.38 274.404C123.429 272.044 121.372 269.625 122.886 266.934C124.401 264.244 125.771 263.497 125.771 263.497L125.777 263.497Z" fill="url(#paint38_linear_928_527)"/>
</g>
<path d="M82.9894 420.637C82.9894 420.637 83.4591 420.307 83.6972 419.56C83.9354 418.813 84.2595 417.458 84.4448 417.101C84.6565 416.704 86.1251 416.308 86.1251 416.308L87.1637 416.427C87.1637 416.427 86.7204 416.506 86.5154 417.762C86.3103 419.018 86.1184 420.327 84.8549 420.591C83.5914 420.856 82.9828 420.631 82.9828 420.631L82.9894 420.637Z" fill="url(#paint39_linear_928_527)"/>
<path d="M240.256 481.413C240.256 481.413 240.725 481.082 240.964 480.335C241.202 479.588 241.526 478.233 241.711 477.876C241.923 477.48 243.391 477.083 243.391 477.083L244.43 477.202C244.43 477.202 243.987 477.281 243.782 478.537C243.577 479.793 243.385 481.102 242.121 481.367C240.858 481.631 240.249 481.406 240.249 481.406L240.256 481.413Z" fill="url(#paint40_linear_928_527)"/>
<path d="M155.242 332.344C155.242 332.344 155.712 332.014 155.95 331.267C156.188 330.52 156.512 329.165 156.697 328.808C156.909 328.411 158.378 328.015 158.378 328.015L159.416 328.134C159.416 328.134 158.973 328.213 158.768 329.469C158.563 330.725 158.371 332.034 157.108 332.298C155.844 332.563 155.235 332.338 155.235 332.338L155.242 332.344Z" fill="url(#paint41_linear_928_527)"/>
<path d="M97.8408 389.703C97.8408 389.703 98.3105 389.372 98.5487 388.625C98.7868 387.878 99.111 386.523 99.2962 386.166C99.5079 385.77 100.976 385.373 100.976 385.373L102.015 385.492C102.015 385.492 101.572 385.571 101.367 386.827C101.162 388.083 100.97 389.392 99.7063 389.657C98.4428 389.921 97.8342 389.696 97.8342 389.696L97.8408 389.703Z" fill="url(#paint42_linear_928_527)"/>
<path d="M270.653 372.463C270.653 372.463 271.123 372.132 271.361 371.385C271.599 370.638 271.923 369.283 272.109 368.926C272.32 368.529 273.789 368.133 273.789 368.133L274.828 368.252C274.828 368.252 274.384 368.331 274.179 369.587C273.974 370.843 273.782 372.152 272.519 372.416C271.255 372.681 270.647 372.456 270.647 372.456L270.653 372.463Z" fill="url(#paint43_linear_928_527)"/>
<path d="M44.4022 349.915C44.4022 349.915 44.6998 350.404 45.4341 350.688C46.1684 350.979 47.4981 351.383 47.8421 351.594C48.2192 351.832 48.5235 353.319 48.5235 353.319L48.3383 354.351C48.3383 354.351 48.2854 353.901 47.0417 353.617C45.798 353.333 44.508 353.055 44.3228 351.779C44.1375 350.503 44.4022 349.915 44.4022 349.915Z" fill="url(#paint44_linear_928_527)"/>
<path d="M275.198 397.893C275.198 397.893 275.496 398.382 276.23 398.666C276.964 398.95 278.294 399.36 278.638 399.572C279.015 399.81 279.319 401.297 279.319 401.297L279.134 402.328C279.134 402.328 279.081 401.879 277.838 401.594C276.594 401.31 275.304 401.033 275.119 399.757C274.933 398.481 275.198 397.893 275.198 397.893Z" fill="url(#paint45_linear_928_527)"/>
<path d="M162.717 474.869C162.717 474.869 163.015 475.358 163.749 475.643C164.484 475.933 165.813 476.337 166.157 476.548C166.534 476.786 166.839 478.274 166.839 478.274L166.654 479.305C166.654 479.305 166.601 478.855 165.357 478.571C164.113 478.287 162.823 478.009 162.638 476.733C162.453 475.457 162.717 474.869 162.717 474.869Z" fill="url(#paint46_linear_928_527)"/>
<path d="M192.467 451.838C192.467 451.838 192.764 452.327 193.499 452.611C194.233 452.902 195.563 453.305 195.907 453.517C196.284 453.755 196.588 455.242 196.588 455.242L196.403 456.273C196.403 456.273 196.35 455.824 195.106 455.54C193.862 455.255 192.572 454.978 192.387 453.702C192.202 452.426 192.467 451.838 192.467 451.838Z" fill="url(#paint47_linear_928_527)"/>
<path d="M195.086 432.776C195.086 432.776 195.556 432.446 195.794 431.699C196.032 430.952 196.356 429.597 196.542 429.24C196.753 428.843 198.222 428.446 198.222 428.446L199.261 428.565C199.261 428.565 198.817 428.645 198.612 429.901C198.407 431.157 198.215 432.465 196.952 432.73C195.688 432.994 195.08 432.769 195.08 432.769L195.086 432.776Z" fill="url(#paint48_linear_928_527)"/>
<path d="M259.685 457.702C259.685 457.702 260.155 457.371 260.393 456.624C260.631 455.877 260.955 454.522 261.14 454.165C261.352 453.769 262.821 453.372 262.821 453.372L263.859 453.491C263.859 453.491 263.416 453.57 263.211 454.826C263.006 456.082 262.814 457.391 261.551 457.656C260.287 457.92 259.678 457.695 259.678 457.695L259.685 457.702Z" fill="url(#paint49_linear_928_527)"/>
<path d="M129.786 462.361C129.786 462.361 131.037 462.295 131.705 459.77C132.379 457.245 133.901 453.523 134.715 452.664C135.528 451.805 136.772 451.679 137.612 451.891C138.452 452.096 139.352 452.175 139.352 452.175C139.352 452.175 138.148 453.166 137.52 454.826C136.891 456.485 134.9 461.542 134.126 462.401C133.352 463.26 131.209 463.175 131.209 463.175L129.786 462.361Z" fill="url(#paint50_linear_928_527)"/>
<path d="M72.8547 326.461C72.8547 326.461 73.9462 325.86 73.4567 323.295C72.9672 320.73 72.7224 316.717 73.0862 315.587C73.4501 314.457 74.5151 313.809 75.3553 313.63C76.2021 313.452 77.0488 313.128 77.0488 313.128C77.0488 313.128 76.3939 314.543 76.5527 316.308C76.7114 318.079 77.1084 323.493 76.7842 324.604C76.4601 325.714 74.4887 326.567 74.4887 326.567L72.8547 326.454L72.8547 326.461Z" fill="url(#paint51_linear_928_527)"/>
<path d="M195.907 402.408C195.907 402.408 196.449 403.532 199.036 403.188C201.622 402.844 205.651 402.824 206.756 403.248C207.86 403.671 208.449 404.768 208.582 405.621C208.714 406.473 208.985 407.333 208.985 407.333C208.985 407.333 207.609 406.599 205.83 406.658C204.05 406.718 198.619 406.811 197.527 406.427C196.436 406.044 195.695 404.028 195.695 404.028L195.9 402.401L195.907 402.408Z" fill="url(#paint52_linear_928_527)"/>
<path d="M304.921 415.847C304.921 415.847 306.171 415.781 306.839 413.256C307.514 410.73 309.035 407.009 309.849 406.149C310.663 405.29 311.906 405.164 312.747 405.376C313.587 405.581 314.486 405.66 314.486 405.66C314.486 405.66 313.282 406.652 312.654 408.311C312.026 409.97 310.034 415.027 309.26 415.886C308.486 416.746 306.343 416.66 306.343 416.66L304.921 415.847Z" fill="url(#paint53_linear_928_527)"/>
<path d="M192.486 470.222C192.486 470.222 194.008 469.31 194.921 467.036C195.834 464.762 197.124 460.63 197.792 459.572C198.533 458.396 203.177 457.49 203.177 457.49L206.379 458.092C206.379 458.092 204.989 458.244 204.07 462.098C203.15 465.952 202.257 469.964 198.288 470.506C194.319 471.048 192.48 470.222 192.48 470.222L192.486 470.222Z" fill="url(#paint54_linear_928_527)"/>
<path d="M273.372 262.736C273.372 262.736 274.02 264.389 276.111 265.665C278.201 266.947 282.058 268.91 282.991 269.743C284.029 270.669 284.149 275.402 284.149 275.402L283.017 278.456C283.017 278.456 283.103 277.061 279.452 275.514C275.8 273.967 271.99 272.414 272.122 268.415C272.254 264.415 273.379 262.743 273.379 262.743L273.372 262.736Z" fill="url(#paint55_linear_928_527)"/>
<g filter="url(#filter3_f_928_527)">
<path d="M117.149 165.007C117.149 165.007 118.26 166.388 120.642 166.976C123.024 167.571 127.29 168.279 128.435 168.794C129.705 169.369 131.24 173.838 131.24 173.838L131.081 177.09C131.081 177.09 130.737 175.735 126.794 175.358C122.845 174.982 118.743 174.651 117.665 170.791C116.58 166.937 117.149 165 117.149 165L117.149 165.007Z" fill="url(#paint56_linear_928_527)"/>
</g>
<path d="M153.582 415.666C153.582 415.666 153.707 414.939 153.244 414.033C152.775 413.127 151.829 411.594 151.676 411.091C151.511 410.536 152.49 408.831 152.49 408.831L153.555 407.991C153.555 407.991 153.224 408.467 154.19 409.809C155.156 411.151 156.175 412.526 155.262 413.921C154.349 415.316 153.588 415.672 153.588 415.672L153.582 415.666Z" fill="url(#paint57_linear_928_527)"/>
<path d="M247.678 343.529C247.678 343.529 247.804 342.802 247.341 341.896C246.871 340.991 245.925 339.457 245.773 338.955C245.608 338.399 246.587 336.694 246.587 336.694L247.652 335.854C247.652 335.854 247.321 336.33 248.287 337.672C249.253 339.014 250.271 340.389 249.358 341.784C248.446 343.179 247.685 343.536 247.685 343.536L247.678 343.529Z" fill="url(#paint58_linear_928_527)"/>
<path d="M118.785 223.881C118.785 223.881 118.911 223.154 118.448 222.248C117.978 221.342 117.032 219.809 116.88 219.306C116.714 218.751 117.693 217.046 117.693 217.046L118.759 216.206C118.759 216.206 118.428 216.682 119.394 218.024C120.359 219.366 121.378 220.741 120.465 222.136C119.552 223.53 118.792 223.887 118.792 223.887L118.785 223.881Z" fill="url(#paint59_linear_928_527)"/>
<path d="M147.118 369.64C147.118 369.64 147.244 368.913 146.781 368.008C146.311 367.102 145.365 365.568 145.213 365.066C145.048 364.511 146.027 362.805 146.027 362.805L147.092 361.966C147.092 361.966 146.761 362.442 147.727 363.784C148.693 365.126 149.712 366.501 148.799 367.895C147.886 369.29 147.125 369.647 147.125 369.647L147.118 369.64Z" fill="url(#paint60_linear_928_527)"/>
<path d="M261.279 155.001C261.279 155.001 261.405 154.274 260.942 153.368C260.472 152.462 259.526 150.929 259.374 150.426C259.209 149.871 260.188 148.166 260.188 148.166L261.253 147.326C261.253 147.326 260.922 147.802 261.888 149.144C262.854 150.486 263.873 151.861 262.96 153.256C262.047 154.65 261.286 155.007 261.286 155.007L261.279 155.001Z" fill="url(#paint61_linear_928_527)"/>
<path d="M33.3678 341.44C33.3678 341.44 34.0888 341.612 35.0216 341.208C35.961 340.798 37.5486 339.952 38.058 339.833C38.6203 339.701 40.2675 340.792 40.2675 340.792L41.0415 341.909C41.0415 341.909 40.5851 341.545 39.1826 342.425C37.7802 343.297 36.3447 344.229 35.0084 343.231C33.6721 342.233 33.3678 341.446 33.3678 341.446L33.3678 341.44Z" fill="url(#paint62_linear_928_527)"/>
<path d="M288.753 174.131C288.753 174.131 289.474 174.303 290.407 173.9C291.346 173.49 292.934 172.644 293.443 172.525C294.005 172.393 295.653 173.483 295.653 173.483L296.427 174.6C296.427 174.6 295.97 174.237 294.568 175.116C293.165 175.989 291.73 176.921 290.393 175.923C289.057 174.924 288.753 174.138 288.753 174.138L288.753 174.131Z" fill="url(#paint63_linear_928_527)"/>
<path d="M317.318 391.619C317.318 391.619 318.039 391.791 318.972 391.388C319.911 390.978 321.499 390.132 322.008 390.013C322.57 389.881 324.218 390.972 324.218 390.972L324.992 392.089C324.992 392.089 324.535 391.725 323.133 392.604C321.73 393.477 320.295 394.409 318.958 393.411C317.622 392.413 317.318 391.626 317.318 391.626L317.318 391.619Z" fill="url(#paint64_linear_928_527)"/>
<path d="M289.93 326.752C289.93 326.752 290.651 326.924 291.584 326.521C292.524 326.111 294.111 325.265 294.621 325.146C295.183 325.014 296.83 326.104 296.83 326.104L297.604 327.222C297.604 327.222 297.148 326.858 295.745 327.737C294.343 328.61 292.907 329.542 291.571 328.544C290.235 327.545 289.93 326.759 289.93 326.759L289.93 326.752Z" fill="url(#paint65_linear_928_527)"/>
<path d="M247.347 279.415C247.347 279.415 247.473 278.688 247.01 277.782C246.54 276.877 245.594 275.343 245.442 274.841C245.277 274.285 246.256 272.58 246.256 272.58L247.321 271.74C247.321 271.74 246.99 272.216 247.956 273.558C248.922 274.9 249.941 276.275 249.028 277.67C248.115 279.065 247.354 279.422 247.354 279.422L247.347 279.415Z" fill="url(#paint66_linear_928_527)"/>
<path d="M335.53 357.12C335.53 357.12 335.656 356.393 335.192 355.487C334.723 354.582 333.777 353.048 333.625 352.546C333.459 351.99 334.438 350.285 334.438 350.285L335.503 349.445C335.503 349.445 335.173 349.921 336.138 351.263C337.104 352.605 338.123 353.98 337.21 355.375C336.297 356.77 335.536 357.127 335.536 357.127L335.53 357.12Z" fill="url(#paint67_linear_928_527)"/>
<path d="M258.726 470.162C258.726 470.162 260.115 470.995 262.669 468.781C265.222 466.566 269.568 463.677 271.063 463.354C272.565 463.023 273.981 463.796 274.735 464.623C275.482 465.456 276.395 466.189 276.395 466.189C276.395 466.189 274.384 466.374 272.506 467.703C270.627 469.032 264.812 472.998 263.357 473.362C261.901 473.719 259.665 472.073 259.665 472.073L258.726 470.169L258.726 470.162Z" fill="url(#paint68_linear_928_527)"/>
<path d="M37.2046 421.181C37.2046 421.181 37.6545 419.628 34.8562 417.73C32.0579 415.833 28.1549 412.376 27.4536 411.014C26.7524 409.653 27.1295 408.079 27.7447 407.147C28.3599 406.209 28.8362 405.138 28.8362 405.138C28.8362 405.138 29.5309 407.035 31.2972 408.509C33.0634 409.983 38.3954 414.577 39.1165 415.893C39.8376 417.208 38.8122 419.786 38.8122 419.786L37.2113 421.181L37.2046 421.181Z" fill="url(#paint69_linear_928_527)"/>
<g filter="url(#filter4_f_928_527)">
<path d="M61.8931 270.286C61.8931 270.286 63.4212 270.821 65.4786 268.137C67.536 265.453 71.2009 261.752 72.6033 261.124C74.0058 260.496 75.5538 260.965 76.4535 261.633C77.3531 262.294 78.3984 262.829 78.3984 262.829C78.3984 262.829 76.4667 263.417 74.8922 265.096C73.3178 266.776 68.4291 271.832 67.0729 272.48C65.7168 273.128 63.1963 271.958 63.1963 271.958L61.8931 270.279L61.8931 270.286Z" fill="url(#paint70_linear_928_527)"/>
</g>
<g filter="url(#filter5_f_928_527)">
<path d="M336 231.741C336 231.741 337.528 232.276 339.585 229.592C341.642 226.909 345.307 223.207 346.71 222.579C348.112 221.951 349.66 222.42 350.56 223.088C351.46 223.749 352.505 224.284 352.505 224.284C352.505 224.284 350.573 224.873 348.999 226.552C347.424 228.231 342.536 233.288 341.179 233.935C339.823 234.583 337.303 233.413 337.303 233.413L336 231.734L336 231.741Z" fill="url(#paint71_linear_928_527)"/>
</g>
<g filter="url(#filter6_f_928_527)">
<path d="M332.44 163.376C332.44 163.376 333.519 162.173 331.825 159.245C330.132 156.316 328.114 151.517 328.068 149.983C328.028 148.45 329.053 147.2 330.006 146.625C330.965 146.05 331.858 145.29 331.858 145.29C331.858 145.29 331.667 147.3 332.612 149.395C333.565 151.491 336.37 157.942 336.449 159.436C336.529 160.937 334.485 162.814 334.485 162.814L332.434 163.376L332.44 163.376Z" fill="url(#paint72_linear_928_527)"/>
</g>
<g filter="url(#filter7_f_928_527)">
<path d="M189.49 271.826C185.236 272.381 180.982 272.937 176.722 273.499C176.246 266.135 175.915 258.176 179.997 252.021C179.99 252.035 188.564 255.624 189.106 255.882C184.257 259.247 185.984 268.204 189.483 271.826L189.49 271.826Z" fill="url(#paint73_linear_928_527)"/>
</g>
<g filter="url(#filter8_f_928_527)">
<path d="M121.815 92.1093C119.48 95.7054 117.151 99.308 114.816 102.904C108.895 98.4949 102.61 93.5834 100.566 86.4971C100.566 86.5169 108.862 82.3061 109.411 82.0615C108.836 87.9315 116.781 92.42 121.815 92.1027L121.815 92.1093Z" fill="url(#paint74_linear_928_527)"/>
</g>
<path d="M160.23 456.089C155.95 455.805 151.67 455.521 147.383 455.237C148.356 447.919 149.593 440.046 154.792 434.811C154.779 434.824 162.493 440.013 162.975 440.376C157.564 442.73 157.505 451.852 160.23 456.089Z" fill="url(#paint75_linear_928_527)"/>
<path d="M286.06 432.577C283.408 435.949 280.761 439.32 278.109 442.698C272.611 437.773 266.803 432.313 265.407 425.068C265.407 425.088 274.047 421.65 274.622 421.452C273.518 427.249 281.019 432.439 286.06 432.577Z" fill="url(#paint76_linear_928_527)"/>
<g filter="url(#filter9_f_928_527)">
<path d="M46.4132 170.78C43.4099 169.491 40.4065 168.202 37.4097 166.907C39.9633 161.903 42.8542 156.561 47.9149 154.122C47.9017 154.122 52.1223 159.814 52.3736 160.19C47.8884 160.508 45.5268 167.039 46.4132 170.78Z" fill="url(#paint77_linear_928_527)"/>
</g>
<g filter="url(#filter10_f_928_527)">
<path d="M306.561 265.797C305.086 262.882 303.611 259.973 302.129 257.058C307.302 254.85 312.945 252.603 318.396 253.971C318.383 253.971 317.973 261.031 317.926 261.487C314.281 258.863 308.281 262.36 306.561 265.797Z" fill="url(#paint78_linear_928_527)"/>
</g>
<g filter="url(#filter11_f_928_527)">
<path d="M323.067 82.2536C317.569 84.8714 312.072 87.4825 306.581 90.1002C302.705 80.3763 298.775 69.7732 301.573 59.6924C301.567 59.7188 314.711 60.7963 315.558 60.9087C310.497 67.5786 316.749 78.9022 323.067 82.2603L323.067 82.2536Z" fill="url(#paint79_linear_928_527)"/>
</g>
</g>
<defs>
<filter id="filter0_f_928_527" x="207.026" y="226.358" width="12.7301" height="12.1963" filterUnits="userSpaceOnUse" color-interpolation-filters="sRGB">
<feFlood flood-opacity="0" result="BackgroundImageFix"/>
<feBlend mode="normal" in="SourceGraphic" in2="BackgroundImageFix" result="shape"/>
<feGaussianBlur stdDeviation="0.5" result="effect1_foregroundBlur_928_527"/>
</filter>
<filter id="filter1_f_928_527" x="128" y="6" width="10.479" height="17.9678" filterUnits="userSpaceOnUse" color-interpolation-filters="sRGB">
<feFlood flood-opacity="0" result="BackgroundImageFix"/>
<feBlend mode="normal" in="SourceGraphic" in2="BackgroundImageFix" result="shape"/>
<feGaussianBlur stdDeviation="1" result="effect1_foregroundBlur_928_527"/>
</filter>
<filter id="filter2_f_928_527" x="120.362" y="261.497" width="11.561" height="18.1924" filterUnits="userSpaceOnUse" color-interpolation-filters="sRGB">
<feFlood flood-opacity="0" result="BackgroundImageFix"/>
<feBlend mode="normal" in="SourceGraphic" in2="BackgroundImageFix" result="shape"/>
<feGaussianBlur stdDeviation="1" result="effect1_foregroundBlur_928_527"/>
</filter>
<filter id="filter3_f_928_527" x="115" y="163" width="18.2397" height="16.0908" filterUnits="userSpaceOnUse" color-interpolation-filters="sRGB">
<feFlood flood-opacity="0" result="BackgroundImageFix"/>
<feBlend mode="normal" in="SourceGraphic" in2="BackgroundImageFix" result="shape"/>
<feGaussianBlur stdDeviation="1" result="effect1_foregroundBlur_928_527"/>
</filter>
<filter id="filter4_f_928_527" x="59.8931" y="258.828" width="20.5053" height="15.8477" filterUnits="userSpaceOnUse" color-interpolation-filters="sRGB">
<feFlood flood-opacity="0" result="BackgroundImageFix"/>
<feBlend mode="normal" in="SourceGraphic" in2="BackgroundImageFix" result="shape"/>
<feGaussianBlur stdDeviation="1" result="effect1_foregroundBlur_928_527"/>
</filter>
<filter id="filter5_f_928_527" x="334" y="220.283" width="20.5053" height="15.8477" filterUnits="userSpaceOnUse" color-interpolation-filters="sRGB">
<feFlood flood-opacity="0" result="BackgroundImageFix"/>
<feBlend mode="normal" in="SourceGraphic" in2="BackgroundImageFix" result="shape"/>
<feGaussianBlur stdDeviation="1" result="effect1_foregroundBlur_928_527"/>
</filter>
<filter id="filter6_f_928_527" x="326.067" y="143.29" width="12.385" height="22.0859" filterUnits="userSpaceOnUse" color-interpolation-filters="sRGB">
<feFlood flood-opacity="0" result="BackgroundImageFix"/>
<feBlend mode="normal" in="SourceGraphic" in2="BackgroundImageFix" result="shape"/>
<feGaussianBlur stdDeviation="1" result="effect1_foregroundBlur_928_527"/>
</filter>
<filter id="filter7_f_928_527" x="174.448" y="250.021" width="17.0418" height="25.4775" filterUnits="userSpaceOnUse" color-interpolation-filters="sRGB">
<feFlood flood-opacity="0" result="BackgroundImageFix"/>
<feBlend mode="normal" in="SourceGraphic" in2="BackgroundImageFix" result="shape"/>
<feGaussianBlur stdDeviation="1" result="effect1_foregroundBlur_928_527"/>
</filter>
<filter id="filter8_f_928_527" x="98.5664" y="80.0615" width="25.2485" height="24.8428" filterUnits="userSpaceOnUse" color-interpolation-filters="sRGB">
<feFlood flood-opacity="0" result="BackgroundImageFix"/>
<feBlend mode="normal" in="SourceGraphic" in2="BackgroundImageFix" result="shape"/>
<feGaussianBlur stdDeviation="1" result="effect1_foregroundBlur_928_527"/>
</filter>
<filter id="filter9_f_928_527" x="35.4097" y="152.122" width="18.9639" height="20.6582" filterUnits="userSpaceOnUse" color-interpolation-filters="sRGB">
<feFlood flood-opacity="0" result="BackgroundImageFix"/>
<feBlend mode="normal" in="SourceGraphic" in2="BackgroundImageFix" result="shape"/>
<feGaussianBlur stdDeviation="1" result="effect1_foregroundBlur_928_527"/>
</filter>
<filter id="filter10_f_928_527" x="300.129" y="251.554" width="20.2671" height="16.2432" filterUnits="userSpaceOnUse" color-interpolation-filters="sRGB">
<feFlood flood-opacity="0" result="BackgroundImageFix"/>
<feBlend mode="normal" in="SourceGraphic" in2="BackgroundImageFix" result="shape"/>
<feGaussianBlur stdDeviation="1" result="effect1_foregroundBlur_928_527"/>
</filter>
<filter id="filter11_f_928_527" x="298.627" y="57.6924" width="26.4394" height="34.4082" filterUnits="userSpaceOnUse" color-interpolation-filters="sRGB">
<feFlood flood-opacity="0" result="BackgroundImageFix"/>
<feBlend mode="normal" in="SourceGraphic" in2="BackgroundImageFix" result="shape"/>
<feGaussianBlur stdDeviation="1" result="effect1_foregroundBlur_928_527"/>
</filter>
<linearGradient id="paint0_linear_928_527" x1="214.169" y1="236.618" x2="212.65" y2="228.426" gradientUnits="userSpaceOnUse">
<stop stop-color="#C88628"/>
<stop offset="0.4" stop-color="#FEEB92"/>
<stop offset="0.7" stop-color="#BB640C"/>
<stop offset="1" stop-color="#B15C03"/>
</linearGradient>
<linearGradient id="paint1_linear_928_527" x1="66.1491" y1="30.7286" x2="74.0578" y2="28.0926" gradientUnits="userSpaceOnUse">
<stop stop-color="#C88628"/>
<stop offset="0.4" stop-color="#FEEB92"/>
<stop offset="0.7" stop-color="#BB640C"/>
<stop offset="1" stop-color="#B15C03"/>
</linearGradient>
<linearGradient id="paint2_linear_928_527" x1="342.818" y1="91.7042" x2="339.821" y2="89.9472" gradientUnits="userSpaceOnUse">
<stop stop-color="#C88628"/>
<stop offset="0.4" stop-color="#FEEB92"/>
<stop offset="0.7" stop-color="#BB640C"/>
<stop offset="1" stop-color="#B15C03"/>
</linearGradient>
<linearGradient id="paint3_linear_928_527" x1="214.841" y1="311.707" x2="211.851" y2="309.95" gradientUnits="userSpaceOnUse">
<stop stop-color="#C88628"/>
<stop offset="0.4" stop-color="#FEEB92"/>
<stop offset="0.7" stop-color="#BB640C"/>
<stop offset="1" stop-color="#B15C03"/>
</linearGradient>
<linearGradient id="paint4_linear_928_527" x1="152.632" y1="102.921" x2="149.635" y2="101.164" gradientUnits="userSpaceOnUse">
<stop stop-color="#C88628"/>
<stop offset="0.4" stop-color="#FEEB92"/>
<stop offset="0.7" stop-color="#BB640C"/>
<stop offset="1" stop-color="#B15C03"/>
</linearGradient>
<linearGradient id="paint5_linear_928_527" x1="334.068" y1="470.478" x2="337.09" y2="464.136" gradientUnits="userSpaceOnUse">
<stop stop-color="#C88628"/>
<stop offset="0.4" stop-color="#FEEB92"/>
<stop offset="0.7" stop-color="#BB640C"/>
<stop offset="1" stop-color="#B15C03"/>
</linearGradient>
<linearGradient id="paint6_linear_928_527" x1="87.1922" y1="116.232" x2="89.1368" y2="113.355" gradientUnits="userSpaceOnUse">
<stop stop-color="#C88628"/>
<stop offset="0.4" stop-color="#FEEB92"/>
<stop offset="0.7" stop-color="#BB640C"/>
<stop offset="1" stop-color="#B15C03"/>
</linearGradient>
<linearGradient id="paint7_linear_928_527" x1="302.409" y1="52.8623" x2="304.353" y2="49.9851" gradientUnits="userSpaceOnUse">
<stop stop-color="#C88628"/>
<stop offset="0.4" stop-color="#FEEB92"/>
<stop offset="0.7" stop-color="#BB640C"/>
<stop offset="1" stop-color="#B15C03"/>
</linearGradient>
<linearGradient id="paint8_linear_928_527" x1="306.386" y1="154.979" x2="308.331" y2="152.102" gradientUnits="userSpaceOnUse">
<stop stop-color="#C88628"/>
<stop offset="0.4" stop-color="#FEEB92"/>
<stop offset="0.7" stop-color="#BB640C"/>
<stop offset="1" stop-color="#B15C03"/>
</linearGradient>
<linearGradient id="paint9_linear_928_527" x1="285.246" y1="104.903" x2="287.19" y2="102.025" gradientUnits="userSpaceOnUse">
<stop stop-color="#C88628"/>
<stop offset="0.4" stop-color="#FEEB92"/>
<stop offset="0.7" stop-color="#BB640C"/>
<stop offset="1" stop-color="#B15C03"/>
</linearGradient>
<linearGradient id="paint10_linear_928_527" x1="251.877" y1="64.661" x2="248.88" y2="62.904" gradientUnits="userSpaceOnUse">
<stop stop-color="#C88628"/>
<stop offset="0.4" stop-color="#FEEB92"/>
<stop offset="0.7" stop-color="#BB640C"/>
<stop offset="1" stop-color="#B15C03"/>
</linearGradient>
<linearGradient id="paint11_linear_928_527" x1="336.428" y1="57.8551" x2="333.431" y2="56.0982" gradientUnits="userSpaceOnUse">
<stop stop-color="#C88628"/>
<stop offset="0.4" stop-color="#FEEB92"/>
<stop offset="0.7" stop-color="#BB640C"/>
<stop offset="1" stop-color="#B15C03"/>
</linearGradient>
<linearGradient id="paint12_linear_928_527" x1="275.774" y1="225.354" x2="274.366" y2="236.507" gradientUnits="userSpaceOnUse">
<stop offset="0.14" stop-color="#C88628"/>
<stop offset="0.49" stop-color="#BB640C"/>
<stop offset="1" stop-color="#A43200"/>
</linearGradient>
<linearGradient id="paint13_linear_928_527" x1="83.3549" y1="164.875" x2="86.9209" y2="175.536" gradientUnits="userSpaceOnUse">
<stop offset="0.14" stop-color="#C88628"/>
<stop offset="0.49" stop-color="#BB640C"/>
<stop offset="1" stop-color="#A43200"/>
</linearGradient>
<linearGradient id="paint14_linear_928_527" x1="118.715" y1="55.5427" x2="107.865" y2="58.5125" gradientUnits="userSpaceOnUse">
<stop offset="0.14" stop-color="#C88628"/>
<stop offset="0.49" stop-color="#BB640C"/>
<stop offset="1" stop-color="#A43200"/>
</linearGradient>
<linearGradient id="paint15_linear_928_527" x1="240.964" y1="40.5274" x2="230.114" y2="43.4972" gradientUnits="userSpaceOnUse">
<stop offset="0.14" stop-color="#C88628"/>
<stop offset="0.49" stop-color="#BB640C"/>
<stop offset="1" stop-color="#A43200"/>
</linearGradient>
<linearGradient id="paint16_linear_928_527" x1="240.585" y1="419.966" x2="239.177" y2="431.118" gradientUnits="userSpaceOnUse">
<stop offset="0.14" stop-color="#C88628"/>
<stop offset="0.49" stop-color="#BB640C"/>
<stop offset="1" stop-color="#A43200"/>
</linearGradient>
<linearGradient id="paint17_linear_928_527" x1="106.137" y1="324.247" x2="104.618" y2="316.055" gradientUnits="userSpaceOnUse">
<stop stop-color="#C88628"/>
<stop offset="0.4" stop-color="#FEEB92"/>
<stop offset="0.7" stop-color="#BB640C"/>
<stop offset="1" stop-color="#B15C03"/>
</linearGradient>
<linearGradient id="paint18_linear_928_527" x1="267.262" y1="102.611" x2="275.598" y2="102.481" gradientUnits="userSpaceOnUse">
<stop stop-color="#C88628"/>
<stop offset="0.4" stop-color="#FEEB92"/>
<stop offset="0.7" stop-color="#BB640C"/>
<stop offset="1" stop-color="#B15C03"/>
</linearGradient>
<linearGradient id="paint19_linear_928_527" x1="35.5473" y1="65.167" x2="43.4514" y2="62.5263" gradientUnits="userSpaceOnUse">
<stop stop-color="#C88628"/>
<stop offset="0.4" stop-color="#FEEB92"/>
<stop offset="0.7" stop-color="#BB640C"/>
<stop offset="1" stop-color="#B15C03"/>
</linearGradient>
<linearGradient id="paint20_linear_928_527" x1="92.2467" y1="266.259" x2="89.2499" y2="264.502" gradientUnits="userSpaceOnUse">
<stop stop-color="#C88628"/>
<stop offset="0.4" stop-color="#FEEB92"/>
<stop offset="0.7" stop-color="#BB640C"/>
<stop offset="1" stop-color="#B15C03"/>
</linearGradient>
<linearGradient id="paint21_linear_928_527" x1="255.575" y1="164.964" x2="252.579" y2="163.207" gradientUnits="userSpaceOnUse">
<stop stop-color="#C88628"/>
<stop offset="0.4" stop-color="#FEEB92"/>
<stop offset="0.7" stop-color="#BB640C"/>
<stop offset="1" stop-color="#B15C03"/>
</linearGradient>
<linearGradient id="paint22_linear_928_527" x1="65.3859" y1="95.0536" x2="62.3957" y2="93.2972" gradientUnits="userSpaceOnUse">
<stop stop-color="#C88628"/>
<stop offset="0.4" stop-color="#FEEB92"/>
<stop offset="0.7" stop-color="#BB640C"/>
<stop offset="1" stop-color="#B15C03"/>
</linearGradient>
<linearGradient id="paint23_linear_928_527" x1="65.3903" y1="176.174" x2="62.3928" y2="174.423" gradientUnits="userSpaceOnUse">
<stop stop-color="#C88628"/>
<stop offset="0.4" stop-color="#FEEB92"/>
<stop offset="0.7" stop-color="#BB640C"/>
<stop offset="1" stop-color="#B15C03"/>
</linearGradient>
<linearGradient id="paint24_linear_928_527" x1="175.387" y1="41.8737" x2="172.39" y2="40.1167" gradientUnits="userSpaceOnUse">
<stop stop-color="#C88628"/>
<stop offset="0.4" stop-color="#FEEB92"/>
<stop offset="0.7" stop-color="#BB640C"/>
<stop offset="1" stop-color="#B15C03"/>
</linearGradient>
<linearGradient id="paint25_linear_928_527" x1="29.4481" y1="184.947" x2="31.3917" y2="182.076" gradientUnits="userSpaceOnUse">
<stop stop-color="#C88628"/>
<stop offset="0.4" stop-color="#FEEB92"/>
<stop offset="0.7" stop-color="#BB640C"/>
<stop offset="1" stop-color="#B15C03"/>
</linearGradient>
<linearGradient id="paint26_linear_928_527" x1="197.096" y1="60.3432" x2="199.041" y2="57.466" gradientUnits="userSpaceOnUse">
<stop stop-color="#C88628"/>
<stop offset="0.4" stop-color="#FEEB92"/>
<stop offset="0.7" stop-color="#BB640C"/>
<stop offset="1" stop-color="#B15C03"/>
</linearGradient>
<linearGradient id="paint27_linear_928_527" x1="319.943" y1="217.603" x2="321.887" y2="214.725" gradientUnits="userSpaceOnUse">
<stop stop-color="#C88628"/>
<stop offset="0.4" stop-color="#FEEB92"/>
<stop offset="0.7" stop-color="#BB640C"/>
<stop offset="1" stop-color="#B15C03"/>
</linearGradient>
<linearGradient id="paint28_linear_928_527" x1="198.004" y1="178.156" x2="199.948" y2="175.279" gradientUnits="userSpaceOnUse">
<stop stop-color="#C88628"/>
<stop offset="0.4" stop-color="#FEEB92"/>
<stop offset="0.7" stop-color="#BB640C"/>
<stop offset="1" stop-color="#B15C03"/>
</linearGradient>
<linearGradient id="paint29_linear_928_527" x1="164.635" y1="137.92" x2="161.638" y2="136.163" gradientUnits="userSpaceOnUse">
<stop stop-color="#C88628"/>
<stop offset="0.4" stop-color="#FEEB92"/>
<stop offset="0.7" stop-color="#BB640C"/>
<stop offset="1" stop-color="#B15C03"/>
</linearGradient>
<linearGradient id="paint30_linear_928_527" x1="249.186" y1="131.115" x2="246.189" y2="129.358" gradientUnits="userSpaceOnUse">
<stop stop-color="#C88628"/>
<stop offset="0.4" stop-color="#FEEB92"/>
<stop offset="0.7" stop-color="#BB640C"/>
<stop offset="1" stop-color="#B15C03"/>
</linearGradient>
<linearGradient id="paint31_linear_928_527" x1="211.076" y1="330.617" x2="209.668" y2="341.769" gradientUnits="userSpaceOnUse">
<stop offset="0.14" stop-color="#C88628"/>
<stop offset="0.49" stop-color="#BB640C"/>
<stop offset="1" stop-color="#A43200"/>
</linearGradient>
<linearGradient id="paint32_linear_928_527" x1="37.8127" y1="221.756" x2="41.3787" y2="232.416" gradientUnits="userSpaceOnUse">
<stop offset="0.14" stop-color="#C88628"/>
<stop offset="0.49" stop-color="#BB640C"/>
<stop offset="1" stop-color="#A43200"/>
</linearGradient>
<linearGradient id="paint33_linear_928_527" x1="31.4841" y1="128.809" x2="20.6369" y2="131.772" gradientUnits="userSpaceOnUse">
<stop offset="0.14" stop-color="#C88628"/>
<stop offset="0.49" stop-color="#BB640C"/>
<stop offset="1" stop-color="#A43200"/>
</linearGradient>
<linearGradient id="paint34_linear_928_527" x1="153.727" y1="113.792" x2="142.88" y2="116.756" gradientUnits="userSpaceOnUse">
<stop offset="0.14" stop-color="#C88628"/>
<stop offset="0.49" stop-color="#BB640C"/>
<stop offset="1" stop-color="#A43200"/>
</linearGradient>
<linearGradient id="paint35_linear_928_527" x1="133.951" y1="9.77055" x2="132.537" y2="20.9185" gradientUnits="userSpaceOnUse">
<stop offset="0.14" stop-color="#C88628"/>
<stop offset="0.49" stop-color="#BB640C"/>
<stop offset="1" stop-color="#A43200"/>
</linearGradient>
<linearGradient id="paint36_linear_928_527" x1="19.614" y1="467.423" x2="24.3236" y2="460.552" gradientUnits="userSpaceOnUse">
<stop stop-color="#C88628"/>
<stop offset="0.4" stop-color="#FEEB92"/>
<stop offset="0.7" stop-color="#BB640C"/>
<stop offset="1" stop-color="#B15C03"/>
</linearGradient>
<linearGradient id="paint37_linear_928_527" x1="295.138" y1="449.91" x2="301.119" y2="455.713" gradientUnits="userSpaceOnUse">
<stop stop-color="#C88628"/>
<stop offset="0.4" stop-color="#FEEB92"/>
<stop offset="0.7" stop-color="#BB640C"/>
<stop offset="1" stop-color="#B15C03"/>
</linearGradient>
<linearGradient id="paint38_linear_928_527" x1="122.513" y1="268.696" x2="129.967" y2="272.428" gradientUnits="userSpaceOnUse">
<stop stop-color="#C88628"/>
<stop offset="0.4" stop-color="#FEEB92"/>
<stop offset="0.7" stop-color="#BB640C"/>
<stop offset="1" stop-color="#B15C03"/>
</linearGradient>
<linearGradient id="paint39_linear_928_527" x1="85.4933" y1="420.19" x2="84.6166" y2="416.831" gradientUnits="userSpaceOnUse">
<stop stop-color="#C88628"/>
<stop offset="0.4" stop-color="#FEEB92"/>
<stop offset="0.7" stop-color="#BB640C"/>
<stop offset="1" stop-color="#B15C03"/>
</linearGradient>
<linearGradient id="paint40_linear_928_527" x1="242.76" y1="480.98" x2="241.878" y2="477.625" gradientUnits="userSpaceOnUse">
<stop stop-color="#C88628"/>
<stop offset="0.4" stop-color="#FEEB92"/>
<stop offset="0.7" stop-color="#BB640C"/>
<stop offset="1" stop-color="#B15C03"/>
</linearGradient>
<linearGradient id="paint41_linear_928_527" x1="157.753" y1="331.896" x2="156.881" y2="328.541" gradientUnits="userSpaceOnUse">
<stop stop-color="#C88628"/>
<stop offset="0.4" stop-color="#FEEB92"/>
<stop offset="0.7" stop-color="#BB640C"/>
<stop offset="1" stop-color="#B15C03"/>
</linearGradient>
<linearGradient id="paint42_linear_928_527" x1="100.343" y1="389.259" x2="99.4664" y2="385.9" gradientUnits="userSpaceOnUse">
<stop stop-color="#C88628"/>
<stop offset="0.4" stop-color="#FEEB92"/>
<stop offset="0.7" stop-color="#BB640C"/>
<stop offset="1" stop-color="#B15C03"/>
</linearGradient>
<linearGradient id="paint43_linear_928_527" x1="273.167" y1="372.026" x2="272.285" y2="368.67" gradientUnits="userSpaceOnUse">
<stop stop-color="#C88628"/>
<stop offset="0.4" stop-color="#FEEB92"/>
<stop offset="0.7" stop-color="#BB640C"/>
<stop offset="1" stop-color="#B15C03"/>
</linearGradient>
<linearGradient id="paint44_linear_928_527" x1="44.6516" y1="352.457" x2="48.0591" y2="351.793" gradientUnits="userSpaceOnUse">
<stop stop-color="#C88628"/>
<stop offset="0.4" stop-color="#FEEB92"/>
<stop offset="0.7" stop-color="#BB640C"/>
<stop offset="1" stop-color="#B15C03"/>
</linearGradient>
<linearGradient id="paint45_linear_928_527" x1="275.452" y1="400.43" x2="278.858" y2="399.775" gradientUnits="userSpaceOnUse">
<stop stop-color="#C88628"/>
<stop offset="0.4" stop-color="#FEEB92"/>
<stop offset="0.7" stop-color="#BB640C"/>
<stop offset="1" stop-color="#B15C03"/>
</linearGradient>
<linearGradient id="paint46_linear_928_527" x1="162.967" y1="477.412" x2="166.379" y2="476.753" gradientUnits="userSpaceOnUse">
<stop stop-color="#C88628"/>
<stop offset="0.4" stop-color="#FEEB92"/>
<stop offset="0.7" stop-color="#BB640C"/>
<stop offset="1" stop-color="#B15C03"/>
</linearGradient>
<linearGradient id="paint47_linear_928_527" x1="192.719" y1="454.382" x2="196.13" y2="453.723" gradientUnits="userSpaceOnUse">
<stop stop-color="#C88628"/>
<stop offset="0.4" stop-color="#FEEB92"/>
<stop offset="0.7" stop-color="#BB640C"/>
<stop offset="1" stop-color="#B15C03"/>
</linearGradient>
<linearGradient id="paint48_linear_928_527" x1="197.593" y1="432.339" x2="196.717" y2="428.979" gradientUnits="userSpaceOnUse">
<stop stop-color="#C88628"/>
<stop offset="0.4" stop-color="#FEEB92"/>
<stop offset="0.7" stop-color="#BB640C"/>
<stop offset="1" stop-color="#B15C03"/>
</linearGradient>
<linearGradient id="paint49_linear_928_527" x1="262.191" y1="457.272" x2="261.314" y2="453.913" gradientUnits="userSpaceOnUse">
<stop stop-color="#C88628"/>
<stop offset="0.4" stop-color="#FEEB92"/>
<stop offset="0.7" stop-color="#BB640C"/>
<stop offset="1" stop-color="#B15C03"/>
</linearGradient>
<linearGradient id="paint50_linear_928_527" x1="138.897" y1="454.095" x2="130.012" y2="460.982" gradientUnits="userSpaceOnUse">
<stop offset="0.14" stop-color="#C88628"/>
<stop offset="0.49" stop-color="#BB640C"/>
<stop offset="1" stop-color="#A43200"/>
</linearGradient>
<linearGradient id="paint51_linear_928_527" x1="77.4335" y1="315.063" x2="72.4216" y2="325.126" gradientUnits="userSpaceOnUse">
<stop offset="0.14" stop-color="#C88628"/>
<stop offset="0.49" stop-color="#BB640C"/>
<stop offset="1" stop-color="#A43200"/>
</linearGradient>
<linearGradient id="paint52_linear_928_527" x1="206.988" y1="407.625" x2="197.221" y2="402.049" gradientUnits="userSpaceOnUse">
<stop offset="0.14" stop-color="#C88628"/>
<stop offset="0.49" stop-color="#BB640C"/>
<stop offset="1" stop-color="#A43200"/>
</linearGradient>
<linearGradient id="paint53_linear_928_527" x1="314.015" y1="407.592" x2="305.13" y2="414.486" gradientUnits="userSpaceOnUse">
<stop offset="0.14" stop-color="#C88628"/>
<stop offset="0.49" stop-color="#BB640C"/>
<stop offset="1" stop-color="#A43200"/>
</linearGradient>
<linearGradient id="paint54_linear_928_527" x1="200.426" y1="469.488" x2="198.454" y2="458.875" gradientUnits="userSpaceOnUse">
<stop stop-color="#C88628"/>
<stop offset="0.4" stop-color="#FEEB92"/>
<stop offset="0.7" stop-color="#BB640C"/>
<stop offset="1" stop-color="#B15C03"/>
</linearGradient>
<linearGradient id="paint55_linear_928_527" x1="272.745" y1="270.676" x2="283.546" y2="270.503" gradientUnits="userSpaceOnUse">
<stop stop-color="#C88628"/>
<stop offset="0.4" stop-color="#FEEB92"/>
<stop offset="0.7" stop-color="#BB640C"/>
<stop offset="1" stop-color="#B15C03"/>
</linearGradient>
<linearGradient id="paint56_linear_928_527" x1="118.941" y1="172.775" x2="129.182" y2="169.36" gradientUnits="userSpaceOnUse">
<stop stop-color="#C88628"/>
<stop offset="0.4" stop-color="#FEEB92"/>
<stop offset="0.7" stop-color="#BB640C"/>
<stop offset="1" stop-color="#B15C03"/>
</linearGradient>
<linearGradient id="paint57_linear_928_527" x1="155.512" y1="412.99" x2="151.634" y2="410.711" gradientUnits="userSpaceOnUse">
<stop stop-color="#C88628"/>
<stop offset="0.4" stop-color="#FEEB92"/>
<stop offset="0.7" stop-color="#BB640C"/>
<stop offset="1" stop-color="#B15C03"/>
</linearGradient>
<linearGradient id="paint58_linear_928_527" x1="249.612" y1="340.854" x2="245.733" y2="338.582" gradientUnits="userSpaceOnUse">
<stop stop-color="#C88628"/>
<stop offset="0.4" stop-color="#FEEB92"/>
<stop offset="0.7" stop-color="#BB640C"/>
<stop offset="1" stop-color="#B15C03"/>
</linearGradient>
<linearGradient id="paint59_linear_928_527" x1="120.723" y1="221.198" x2="116.845" y2="218.926" gradientUnits="userSpaceOnUse">
<stop stop-color="#C88628"/>
<stop offset="0.4" stop-color="#FEEB92"/>
<stop offset="0.7" stop-color="#BB640C"/>
<stop offset="1" stop-color="#B15C03"/>
</linearGradient>
<linearGradient id="paint60_linear_928_527" x1="149.056" y1="366.961" x2="145.171" y2="364.689" gradientUnits="userSpaceOnUse">
<stop stop-color="#C88628"/>
<stop offset="0.4" stop-color="#FEEB92"/>
<stop offset="0.7" stop-color="#BB640C"/>
<stop offset="1" stop-color="#B15C03"/>
</linearGradient>
<linearGradient id="paint61_linear_928_527" x1="263.215" y1="152.315" x2="259.336" y2="150.043" gradientUnits="userSpaceOnUse">
<stop stop-color="#C88628"/>
<stop offset="0.4" stop-color="#FEEB92"/>
<stop offset="0.7" stop-color="#BB640C"/>
<stop offset="1" stop-color="#B15C03"/>
</linearGradient>
<linearGradient id="paint62_linear_928_527" x1="35.9391" y1="343.54" x2="38.4537" y2="339.817" gradientUnits="userSpaceOnUse">
<stop stop-color="#C88628"/>
<stop offset="0.4" stop-color="#FEEB92"/>
<stop offset="0.7" stop-color="#BB640C"/>
<stop offset="1" stop-color="#B15C03"/>
</linearGradient>
<linearGradient id="paint63_linear_928_527" x1="291.333" y1="176.242" x2="293.848" y2="172.518" gradientUnits="userSpaceOnUse">
<stop stop-color="#C88628"/>
<stop offset="0.4" stop-color="#FEEB92"/>
<stop offset="0.7" stop-color="#BB640C"/>
<stop offset="1" stop-color="#B15C03"/>
</linearGradient>
<linearGradient id="paint64_linear_928_527" x1="319.888" y1="393.729" x2="322.403" y2="390.005" gradientUnits="userSpaceOnUse">
<stop stop-color="#C88628"/>
<stop offset="0.4" stop-color="#FEEB92"/>
<stop offset="0.7" stop-color="#BB640C"/>
<stop offset="1" stop-color="#B15C03"/>
</linearGradient>
<linearGradient id="paint65_linear_928_527" x1="292.502" y1="328.86" x2="295.017" y2="325.136" gradientUnits="userSpaceOnUse">
<stop stop-color="#C88628"/>
<stop offset="0.4" stop-color="#FEEB92"/>
<stop offset="0.7" stop-color="#BB640C"/>
<stop offset="1" stop-color="#B15C03"/>
</linearGradient>
<linearGradient id="paint66_linear_928_527" x1="249.287" y1="276.733" x2="245.408" y2="274.461" gradientUnits="userSpaceOnUse">
<stop stop-color="#C88628"/>
<stop offset="0.4" stop-color="#FEEB92"/>
<stop offset="0.7" stop-color="#BB640C"/>
<stop offset="1" stop-color="#B15C03"/>
</linearGradient>
<linearGradient id="paint67_linear_928_527" x1="337.47" y1="354.442" x2="333.592" y2="352.171" gradientUnits="userSpaceOnUse">
<stop stop-color="#C88628"/>
<stop offset="0.4" stop-color="#FEEB92"/>
<stop offset="0.7" stop-color="#BB640C"/>
<stop offset="1" stop-color="#B15C03"/>
</linearGradient>
<linearGradient id="paint68_linear_928_527" x1="274.464" y1="467.928" x2="259.925" y2="468.852" gradientUnits="userSpaceOnUse">
<stop offset="0.14" stop-color="#C88628"/>
<stop offset="0.49" stop-color="#BB640C"/>
<stop offset="1" stop-color="#A43200"/>
</linearGradient>
<linearGradient id="paint69_linear_928_527" x1="30.9723" y1="406.544" x2="35.587" y2="420.352" gradientUnits="userSpaceOnUse">
<stop offset="0.14" stop-color="#C88628"/>
<stop offset="0.49" stop-color="#BB640C"/>
<stop offset="1" stop-color="#A43200"/>
</linearGradient>
<linearGradient id="paint70_linear_928_527" x1="76.8073" y1="264.913" x2="62.7557" y2="268.755" gradientUnits="userSpaceOnUse">
<stop offset="0.14" stop-color="#C88628"/>
<stop offset="0.49" stop-color="#BB640C"/>
<stop offset="1" stop-color="#A43200"/>
</linearGradient>
<linearGradient id="paint71_linear_928_527" x1="350.903" y1="226.354" x2="336.851" y2="230.197" gradientUnits="userSpaceOnUse">
<stop offset="0.14" stop-color="#C88628"/>
<stop offset="0.49" stop-color="#BB640C"/>
<stop offset="1" stop-color="#A43200"/>
</linearGradient>
<linearGradient id="paint72_linear_928_527" x1="333.18" y1="147.541" x2="331.352" y2="161.983" gradientUnits="userSpaceOnUse">
<stop offset="0.14" stop-color="#C88628"/>
<stop offset="0.49" stop-color="#BB640C"/>
<stop offset="1" stop-color="#A43200"/>
</linearGradient>
<linearGradient id="paint73_linear_928_527" x1="182.967" y1="252.021" x2="182.967" y2="273.499" gradientUnits="userSpaceOnUse">
<stop stop-color="#C88628"/>
<stop offset="0.12" stop-color="#FEEB92"/>
<stop offset="0.38" stop-color="#B15C03"/>
<stop offset="0.49" stop-color="#B36109"/>
<stop offset="0.66" stop-color="#BB701A"/>
<stop offset="0.84" stop-color="#C98937"/>
<stop offset="1" stop-color="#D6A254"/>
</linearGradient>
<linearGradient id="paint74_linear_928_527" x1="102.511" y1="84.2465" x2="118.873" y2="98.1726" gradientUnits="userSpaceOnUse">
<stop stop-color="#C88628"/>
<stop offset="0.12" stop-color="#FEEB92"/>
<stop offset="0.38" stop-color="#B15C03"/>
<stop offset="0.49" stop-color="#B36109"/>
<stop offset="0.66" stop-color="#BB701A"/>
<stop offset="0.84" stop-color="#C98937"/>
<stop offset="1" stop-color="#D6A254"/>
</linearGradient>
<linearGradient id="paint75_linear_928_527" x1="157.69" y1="435.391" x2="153.494" y2="456.462" gradientUnits="userSpaceOnUse">
<stop stop-color="#C88628"/>
<stop offset="0.12" stop-color="#FEEB92"/>
<stop offset="0.38" stop-color="#B15C03"/>
<stop offset="0.49" stop-color="#B36109"/>
<stop offset="0.66" stop-color="#BB701A"/>
<stop offset="0.84" stop-color="#C98937"/>
<stop offset="1" stop-color="#D6A254"/>
</linearGradient>
<linearGradient id="paint76_linear_928_527" x1="267.528" y1="422.961" x2="282.557" y2="438.315" gradientUnits="userSpaceOnUse">
<stop stop-color="#C88628"/>
<stop offset="0.12" stop-color="#FEEB92"/>
<stop offset="0.38" stop-color="#B15C03"/>
<stop offset="0.49" stop-color="#B36109"/>
<stop offset="0.66" stop-color="#BB701A"/>
<stop offset="0.84" stop-color="#C98937"/>
<stop offset="1" stop-color="#D6A254"/>
</linearGradient>
<linearGradient id="paint77_linear_928_527" x1="49.8616" y1="155.278" x2="41.5077" y2="169.341" gradientUnits="userSpaceOnUse">
<stop stop-color="#C88628"/>
<stop offset="0.12" stop-color="#FEEB92"/>
<stop offset="0.38" stop-color="#B15C03"/>
<stop offset="0.49" stop-color="#B36109"/>
<stop offset="0.66" stop-color="#BB701A"/>
<stop offset="0.84" stop-color="#C98937"/>
<stop offset="1" stop-color="#D6A254"/>
</linearGradient>
<linearGradient id="paint78_linear_928_527" x1="319.157" y1="256.097" x2="303.724" y2="261.54" gradientUnits="userSpaceOnUse">
<stop stop-color="#C88628"/>
<stop offset="0.12" stop-color="#FEEB92"/>
<stop offset="0.38" stop-color="#B15C03"/>
<stop offset="0.49" stop-color="#B36109"/>
<stop offset="0.66" stop-color="#BB701A"/>
<stop offset="0.84" stop-color="#C98937"/>
<stop offset="1" stop-color="#D6A254"/>
</linearGradient>
<linearGradient id="paint79_linear_928_527" x1="305.546" y1="58.3615" x2="314.956" y2="87.3418" gradientUnits="userSpaceOnUse">
<stop stop-color="#C88628"/>
<stop offset="0.12" stop-color="#FEEB92"/>
<stop offset="0.38" stop-color="#B15C03"/>
<stop offset="0.49" stop-color="#B36109"/>
<stop offset="0.66" stop-color="#BB701A"/>
<stop offset="0.84" stop-color="#C98937"/>
<stop offset="1" stop-color="#D6A254"/>
</linearGradient>
<clipPath id="clip0_928_527">
<rect width="527" height="360" fill="white" transform="translate(360) rotate(90)"/>
</clipPath>
</defs>
</svg>
